HIERARCHY
ROOT joint_Root
{
	OFFSET 0.0 0.0 0.0
	CHANNELS 6 Xposition Yposition Zposition Zrotation Xrotation Yrotation 
	JOINT Hips
	{
		OFFSET 4.5925 91.4895 -427.239
		CHANNELS 6 Xposition Yposition Zposition Zrotation Xrotation Yrotation 
		JOINT Spine
		{
			OFFSET 15.7357 0.0 0.0
			CHANNELS 6 Xposition Yposition Zposition Zrotation Xrotation Yrotation 
			JOINT Chest
			{
				OFFSET 8.98455 -0.406207 0.0
				CHANNELS 6 Xposition Yposition Zposition Zrotation Xrotation Yrotation 
				JOINT Neck
				{
					OFFSET 16.3773 0.0 0.0
					CHANNELS 6 Xposition Yposition Zposition Zrotation Xrotation Yrotation 
					JOINT Head
					{
						OFFSET 6.45672 0.0 0.0
						CHANNELS 6 Xposition Yposition Zposition Zrotation Xrotation Yrotation 
						End Site
						{
							OFFSET 0.0 0.0 0.0
						}
					}
				}
				JOINT Shoulder_L
				{
					OFFSET 12.9942 -0.242716 4.98039
					CHANNELS 6 Xposition Yposition Zposition Zrotation Xrotation Yrotation 
					JOINT UpperArm_L
					{
						OFFSET 5.34809 0.0 0.0
						CHANNELS 6 Xposition Yposition Zposition Zrotation Xrotation Yrotation 
						JOINT LowerArm_L
						{
							OFFSET 24.3286 1.87007e-05 0.0
							CHANNELS 6 Xposition Yposition Zposition Zrotation Xrotation Yrotation 
							JOINT Hand_L
							{
								OFFSET 22.2916 0.0 0.0
								CHANNELS 6 Xposition Yposition Zposition Zrotation Xrotation Yrotation 
								End Site
								{
									OFFSET 0.0 0.0 0.0
								}
							}
						}
					}
				}
				JOINT Shoulder_R
				{
					OFFSET 12.9945 -0.242716 -4.98039
					CHANNELS 6 Xposition Yposition Zposition Zrotation Xrotation Yrotation 
					JOINT UpperArm_R
					{
						OFFSET -5.34813 0.0 0.0
						CHANNELS 6 Xposition Yposition Zposition Zrotation Xrotation Yrotation 
						JOINT LowerArm_R
						{
							OFFSET -24.3289 0.000322201 0.0
							CHANNELS 6 Xposition Yposition Zposition Zrotation Xrotation Yrotation 
							JOINT Hand_R
							{
								OFFSET -22.2915 -0.000108084 0.0
								CHANNELS 6 Xposition Yposition Zposition Zrotation Xrotation Yrotation 
								End Site
								{
									OFFSET 0.0 0.0 0.0
								}
							}
						}
					}
				}
			}
		}
		JOINT UpperLeg_L
		{
			OFFSET -2.19248 -6.46944 0.0
			CHANNELS 6 Xposition Yposition Zposition Zrotation Xrotation Yrotation 
			JOINT LowerLeg_L
			{
				OFFSET 39.0811 0.0 -1.23785e-05
				CHANNELS 6 Xposition Yposition Zposition Zrotation Xrotation Yrotation 
				JOINT Foot_L
				{
					OFFSET 40.9854 0.0 -1.26872e-05
					CHANNELS 6 Xposition Yposition Zposition Zrotation Xrotation Yrotation 
					JOINT Toes_L
					{
						OFFSET 11.7543 0.0 0.0
						CHANNELS 6 Xposition Yposition Zposition Zrotation Xrotation Yrotation 
						End Site
						{
							OFFSET 0.0 0.0 0.0
						}
					}
				}
			}
		}
		JOINT UpperLeg_R
		{
			OFFSET -2.19251 6.46944 0.0
			CHANNELS 6 Xposition Yposition Zposition Zrotation Xrotation Yrotation 
			JOINT LowerLeg_R
			{
				OFFSET -39.0811 -0.00228153 -0.0401928
				CHANNELS 6 Xposition Yposition Zposition Zrotation Xrotation Yrotation 
				JOINT Foot_R
				{
					OFFSET -40.9854 0.0 0.0
					CHANNELS 6 Xposition Yposition Zposition Zrotation Xrotation Yrotation 
					JOINT Toes_R
					{
						OFFSET -11.7543 0.0 0.0
						CHANNELS 6 Xposition Yposition Zposition Zrotation Xrotation Yrotation 
						End Site
						{
							OFFSET 0.0 0.0 0.0
						}
					}
				}
			}
		}
	}
}
MOTION
Frames:	8
Frame Time:	0.0333333
0.000000 0.000000 0.000000 0.000000 0.000000 -0.000000 -2.505010 90.319800 -3.015360 89.293400 -2.176580 11.548500 15.735700 0.000005 -0.000001 87.681200 77.606500 -86.393000 8.984550 -0.406207 -0.000000 17.013500 -0.882759 2.712390 16.377300 -0.000001 -0.000001 6.204290 -3.282920 2.110400 6.456720 -0.000001 -0.000000 -4.805410 -2.604740 3.442800 12.994200 -0.242716 4.980390 -90.185800 0.621071 -73.342200 5.348090 -0.000007 -0.000001 -73.039600 -21.948100 -76.190100 24.328600 0.000019 0.000005 38.151800 -8.559910 -100.729000 22.291600 -0.000001 0.000005 18.281300 5.021090 6.867500 12.994500 -0.242716 -4.980390 88.983000 10.908100 -84.641100 -5.348130 -0.000001 -0.000004 -55.280500 33.978400 -22.951200 -24.328900 0.000322 -0.000009 2.183990 5.417560 -22.004900 -22.291500 -0.000108 -0.000004 16.837400 5.418100 -3.535230 -2.192480 -6.469440 -0.000000 -173.483000 -12.292000 -2.691670 39.081100 -0.000007 -0.000012 -0.218312 0.320999 34.220100 40.985400 -0.000006 -0.000013 -0.973013 3.718730 -69.469300 11.754300 -0.000000 0.000003 -0.000189 -0.001767 -16.644300 -2.192510 6.469440 -0.000001 175.310000 21.206500 178.835000 -39.081100 -0.002282 -0.040193 -0.229948 0.351372 33.576700 -40.985400 0.000008 0.000006 4.549430 11.889400 -70.721000 -11.754300 -0.000006 -0.000006 -0.002835 -0.038720 -18.147700
0.000000 0.000000 0.000000 0.000000 0.000000 -0.000000 -2.557470 90.323400 -3.000930 89.308500 -2.169060 11.552600 15.735700 0.000005 -0.000001 87.662200 77.588300 -86.380300 8.984550 -0.406207 -0.000000 17.049800 -0.892325 2.701480 16.377300 -0.000001 -0.000001 6.437820 -3.246620 2.121850 6.456720 -0.000001 -0.000000 -4.460170 -2.551850 3.374850 12.994200 -0.242716 4.980390 -90.186000 0.621347 -73.334500 5.348090 -0.000007 -0.000001 -73.008800 -21.883600 -76.096500 24.328600 0.000019 0.000005 38.127400 -8.606580 -100.795000 22.291600 -0.000001 0.000005 18.328500 5.021840 6.851430 12.994500 -0.242716 -4.980390 88.987800 10.874800 -84.650000 -5.348130 -0.000001 -0.000004 -55.327300 34.020600 -22.916300 -24.328900 0.000322 -0.000009 2.212420 5.531300 -21.850500 -22.291500 -0.000108 -0.000004 16.771500 5.417250 -3.506620 -2.192480 -6.469440 -0.000000 -173.461000 -12.294500 -2.656000 39.081100 -0.000007 -0.000012 -0.217036 0.319588 34.181200 40.985400 -0.000006 -0.000013 -1.011920 3.714120 -69.453700 11.754300 -0.000000 0.000003 -0.000178 -0.001680 -16.641100 -2.192510 6.469440 -0.000001 175.325000 21.190200 178.859000 -39.081100 -0.002282 -0.040193 -0.228776 0.349818 33.560600 -40.985400 0.000008 0.000006 4.571990 11.869100 -70.735200 -11.754300 -0.000006 -0.000006 -0.002838 -0.038751 -18.149000
0.000000 0.000000 0.000000 0.000000 0.000000 -0.000000 -2.602430 90.314500 -2.990630 89.299100 -2.167330 11.580200 15.735700 0.000005 -0.000001 87.725100 77.544000 -86.447500 8.984550 -0.406207 -0.000000 17.138800 -0.868199 2.690240 16.377300 -0.000001 -0.000001 6.631370 -3.265260 2.103600 6.456720 -0.000001 -0.000000 -4.191400 -2.573170 3.364930 12.994200 -0.242716 4.980390 -90.188700 0.629123 -73.307200 5.348090 -0.000007 -0.000001 -72.985400 -21.811200 -76.102400 24.328600 0.000019 0.000005 38.074800 -8.608750 -100.817000 22.291600 -0.000001 0.000005 18.302300 5.021590 6.856960 12.994500 -0.242716 -4.980390 88.979400 10.885500 -84.610800 -5.348130 -0.000001 -0.000004 -55.406400 33.998600 -22.851600 -24.328900 0.000322 -0.000009 2.198380 5.515960 -21.779400 -22.291500 -0.000108 -0.000004 16.837600 5.417010 -3.498440 -2.192480 -6.469440 -0.000000 -173.403000 -12.294300 -2.632680 39.081100 -0.000007 -0.000012 -0.219618 0.322993 34.213900 40.985400 -0.000006 -0.000013 -1.040350 3.745610 -69.472600 11.754300 -0.000000 0.000003 -0.000178 -0.001677 -16.641000 -2.192510 6.469440 -0.000001 175.350000 21.217900 178.890000 -39.081100 -0.002282 -0.040193 -0.229147 0.349978 33.590800 -40.985400 0.000008 0.000006 4.608930 11.854300 -70.775600 -11.754300 -0.000006 -0.000006 -0.002931 -0.039824 -18.192700
0.000000 0.000000 0.000000 0.000000 0.000000 -0.000000 -2.655480 90.311700 -2.982960 89.319200 -2.144160 11.596800 15.735700 0.000005 -0.000001 87.714400 77.511700 -86.446900 8.984550 -0.406207 -0.000000 17.203300 -0.875282 2.671700 16.377300 -0.000001 -0.000001 6.789380 -3.297700 2.088680 6.456720 -0.000001 -0.000000 -3.742900 -2.608110 3.277170 12.994200 -0.242716 4.980390 -90.179000 0.597792 -73.335300 5.348090 -0.000007 -0.000001 -72.961700 -21.793400 -75.994400 24.328600 0.000019 0.000005 38.074700 -8.623650 -100.836000 22.291600 -0.000001 0.000005 18.378900 5.025490 6.772440 12.994500 -0.242716 -4.980390 88.981900 10.883700 -84.623500 -5.348130 -0.000001 -0.000004 -55.534400 33.936000 -22.715100 -24.328900 0.000322 -0.000009 2.188900 5.497610 -21.759600 -22.291500 -0.000108 -0.000004 16.806800 5.416760 -3.490220 -2.192480 -6.469440 -0.000000 -173.376000 -12.287700 -2.607760 39.081100 -0.000007 -0.000012 -0.220415 0.324309 34.202200 40.985400 -0.000006 -0.000013 -1.074880 3.779620 -69.461000 11.754300 -0.000000 0.000003 -0.000193 -0.001798 -16.645500 -2.192510 6.469440 -0.000001 175.349000 21.275500 178.910000 -39.081100 -0.002282 -0.040193 -0.228505 0.348757 33.610000 -40.985400 0.000008 0.000006 4.658630 11.863100 -70.808800 -11.754300 -0.000006 -0.000006 -0.002791 -0.038211 -18.127000
0.000000 0.000000 0.000000 0.000000 0.000000 -0.000000 -2.706490 90.307000 -2.979280 89.329300 -2.132450 11.585500 15.735700 0.000005 -0.000001 87.712700 77.491400 -86.451800 8.984550 -0.406207 -0.000000 17.243800 -0.877664 2.659000 16.377300 -0.000001 -0.000001 6.989240 -3.326130 2.061630 6.456720 -0.000001 -0.000000 -3.217260 -2.645360 3.200700 12.994200 -0.242716 4.980390 -90.177400 0.593235 -73.347600 5.348090 -0.000007 -0.000001 -72.890500 -21.763500 -75.905100 24.328600 0.000019 0.000005 38.191700 -8.615220 -100.781000 22.291600 -0.000001 0.000005 18.310900 5.024030 6.804190 12.994500 -0.242716 -4.980390 88.976400 10.897500 -84.601000 -5.348130 -0.000001 -0.000004 -55.527800 34.032600 -22.671100 -24.328900 0.000322 -0.000009 2.211000 5.564470 -21.720100 -22.291500 -0.000108 -0.000004 16.752300 5.415810 -3.458370 -2.192480 -6.469440 -0.000000 -173.346000 -12.308400 -2.617560 39.081100 -0.000007 -0.000012 -0.221225 0.325428 34.208200 40.985400 -0.000006 -0.000013 -1.098230 3.824210 -69.459800 11.754300 -0.000000 0.000003 -0.000190 -0.001773 -16.644500 -2.192510 6.469440 -0.000001 175.382000 21.245100 178.892000 -39.081100 -0.002282 -0.040193 -0.230998 0.352192 33.633700 -40.985400 0.000008 0.000006 4.681130 11.820000 -70.837900 -11.754300 -0.000006 -0.000006 -0.002781 -0.038098 -18.122400
0.000000 0.000000 0.000000 0.000000 0.000000 -0.000000 -2.751700 90.304900 -2.962660 89.331100 -2.107150 11.613500 15.735700 0.000005 -0.000001 87.647600 77.457200 -86.392600 8.984550 -0.406207 -0.000000 17.311500 -0.907948 2.652510 16.377300 -0.000001 -0.000001 7.264650 -3.339630 2.040830 6.456720 -0.000001 -0.000000 -2.815490 -2.634630 3.090570 12.994200 -0.242716 4.980390 -90.174500 0.582546 -73.326300 5.348090 -0.000007 -0.000001 -72.866100 -21.735500 -75.808000 24.328600 0.000019 0.000005 38.143700 -8.595920 -100.776000 22.291600 -0.000001 0.000005 18.255300 5.026170 6.757730 12.994500 -0.242716 -4.980390 88.983000 10.855800 -84.615600 -5.348130 -0.000001 -0.000004 -55.634600 34.080700 -22.598400 -24.328900 0.000322 -0.000009 2.197190 5.534140 -21.704000 -22.291500 -0.000108 -0.000004 16.672800 5.416890 -3.494640 -2.192480 -6.469440 -0.000000 -173.311000 -12.290800 -2.580820 39.081100 -0.000007 -0.000012 -0.219571 0.323045 34.204100 40.985400 -0.000006 -0.000013 -1.122710 3.853580 -69.458900 11.754300 -0.000000 0.000003 -0.000183 -0.001719 -16.642600 -2.192510 6.469440 -0.000001 175.393000 21.266400 178.935000 -39.081100 -0.002282 -0.040193 -0.231517 0.352933 33.636600 -40.985400 0.000008 0.000006 4.705720 11.792500 -70.860400 -11.754300 -0.000006 -0.000006 -0.002756 -0.037806 -18.110500
0.000000 0.000000 0.000000 0.000000 0.000000 -0.000000 -2.794000 90.299800 -2.946090 89.332700 -2.112970 11.619800 15.735700 0.000005 -0.000001 87.660000 77.421800 -86.415700 8.984550 -0.406207 -0.000000 17.382200 -0.905421 2.631480 16.377300 -0.000001 -0.000001 7.476270 -3.367580 2.022630 6.456720 -0.000001 -0.000000 -2.380640 -2.639260 3.009480 12.994200 -0.242716 4.980390 -90.175800 0.586535 -73.315200 5.348090 -0.000007 -0.000001 -72.839700 -21.698900 -75.765700 24.328600 0.000019 0.000005 38.154700 -8.593700 -100.769000 22.291600 -0.000001 0.000005 18.202400 5.027300 6.733210 12.994500 -0.242716 -4.980390 88.978300 10.859900 -84.592500 -5.348130 -0.000001 -0.000004 -55.698800 34.101000 -22.546500 -24.328900 0.000322 -0.000009 2.192920 5.513270 -21.739900 -22.291500 -0.000108 -0.000004 16.792400 5.417350 -3.509920 -2.192480 -6.469440 -0.000000 -173.278000 -12.289800 -2.559620 39.081100 -0.000007 -0.000012 -0.220466 0.324253 34.212900 40.985400 -0.000006 -0.000013 -1.153780 3.857360 -69.474900 11.754300 -0.000000 0.000003 -0.000182 -0.001711 -16.642300 -2.192510 6.469440 -0.000001 175.421000 21.263800 178.944000 -39.081100 -0.002282 -0.040193 -0.227059 0.345986 33.655400 -40.985400 0.000008 0.000006 4.747860 11.809600 -70.895800 -11.754300 -0.000006 -0.000006 -0.002691 -0.037059 -18.080100
0.000000 0.000000 0.000000 0.000000 0.000000 -0.000000 -2.830750 90.300400 -2.932960 89.336600 -2.128200 11.629800 15.735700 0.000005 -0.000001 87.682500 77.385800 -86.440700 8.984550 -0.406207 -0.000000 17.454500 -0.897911 2.625770 16.377300 -0.000001 -0.000001 7.673740 -3.371980 1.964560 6.456720 -0.000001 -0.000000 -2.010180 -2.674890 2.890840 12.994200 -0.242716 4.980390 -90.163000 0.545098 -73.356200 5.348090 -0.000007 -0.000001 -72.893800 -21.724400 -75.620800 24.328600 0.000019 0.000005 38.113300 -8.670470 -100.878000 22.291600 -0.000001 0.000005 18.109500 5.027450 6.730010 12.994500 -0.242716 -4.980390 88.975300 10.857900 -84.576000 -5.348130 -0.000001 -0.000004 -55.705500 34.110500 -22.535200 -24.328900 0.000322 -0.000009 2.160130 5.419420 -21.780200 -22.291500 -0.000108 -0.000004 16.729500 5.417880 -3.528020 -2.192480 -6.469440 -0.000000 -173.244000 -12.314500 -2.531460 39.081100 -0.000007 -0.000012 -0.220433 0.324400 34.196800 40.985400 -0.000006 -0.000013 -1.181400 3.865410 -69.467100 11.754300 -0.000000 0.000003 -0.000176 -0.001662 -16.640500 -2.192510 6.469440 -0.000001 175.431000 21.279700 178.973000 -39.081100 -0.002282 -0.040193 -0.228869 0.348811 33.647400 -40.985400 0.000008 0.000006 4.775340 11.811200 -70.913300 -11.754300 -0.000006 -0.000006 -0.002787 -0.038165 -18.125100
